<?xml version="1.0" encoding="UTF-8" standalone="no"?>
<svg
   width="230"
   height="325"
   viewBox="0 0 920 1300"
   version="1.1"
   id="svg116"
   sodipodi:docname="exp3.svg"
   inkscape:version="1.3.2 (091e20e, 2023-11-25, custom)"
   xmlns:inkscape="http://www.inkscape.org/namespaces/inkscape"
   xmlns:sodipodi="http://sodipodi.sourceforge.net/DTD/sodipodi-0.dtd"
   xmlns="http://www.w3.org/2000/svg"
   xmlns:svg="http://www.w3.org/2000/svg">
  <sodipodi:namedview
     id="namedview116"
     pagecolor="#ffffff"
     bordercolor="#666666"
     borderopacity="1.0"
     inkscape:showpageshadow="2"
     inkscape:pageopacity="0.0"
     inkscape:pagecheckerboard="0"
     inkscape:deskcolor="#d1d1d1"
     inkscape:zoom="2.1275"
     inkscape:cx="130.19976"
     inkscape:cy="200"
     inkscape:window-width="1852"
     inkscape:window-height="1055"
     inkscape:window-x="1912"
     inkscape:window-y="-8"
     inkscape:window-maximized="1"
     inkscape:current-layer="svg116" />
  <defs
     id="defs1">
    <clipPath
       id="clip640">
      <rect
         x="0"
         y="0"
         width="1040"
         height="1600"
         id="rect1" />
    </clipPath>
  </defs>
  <path
     clip-path="url(#clip640)"
     d="M 0,1600 H 1040 V 0 H 0 Z"
     fill="#ffffff"
     fill-rule="evenodd"
     fill-opacity="1"
     id="path1"
     transform="translate(-56,-184)" />
  <defs
     id="defs2">
    <clipPath
       id="clip641">
      <rect
         x="320"
         y="160"
         width="1040"
         height="1121"
         id="rect2" />
    </clipPath>
  </defs>
  <path
     clip-path="url(#clip640)"
     d="M 305.729,1283.16 H 929.764 V 197.264 H 305.729 Z"
     fill="#ffffff"
     fill-rule="evenodd"
     fill-opacity="1"
     id="path2"
     transform="translate(-56,-184)" />
  <defs
     id="defs3">
    <clipPath
       id="clip642">
      <rect
         x="305"
         y="197"
         width="625"
         height="1087"
         id="rect3" />
    </clipPath>
  </defs>
  <polyline
     clip-path="url(#clip640)"
     style="fill:none;stroke:#000000;stroke-width:4;stroke-linecap:round;stroke-linejoin:round;stroke-opacity:1"
     points="305.729,1283.16 929.764,1283.16 "
     id="polyline3"
     transform="translate(-56,-184)" />
  <polyline
     clip-path="url(#clip640)"
     style="fill:none;stroke:#000000;stroke-width:4;stroke-linecap:round;stroke-linejoin:round;stroke-opacity:1"
     points="305.729,197.264 929.764,197.264 "
     id="polyline4"
     transform="translate(-56,-184)" />
  <polyline
     clip-path="url(#clip640)"
     style="fill:none;stroke:#000000;stroke-width:4;stroke-linecap:round;stroke-linejoin:round;stroke-opacity:1"
     points="912.557,1283.16 912.557,1264.26 "
     id="polyline5"
     transform="translate(-56,-184)" />
  <polyline
     clip-path="url(#clip640)"
     style="fill:none;stroke:#000000;stroke-width:4;stroke-linecap:round;stroke-linejoin:round;stroke-opacity:1"
     points="676.891,1283.16 676.891,1264.26 "
     id="polyline6"
     transform="translate(-56,-184)" />
  <polyline
     clip-path="url(#clip640)"
     style="fill:none;stroke:#000000;stroke-width:4;stroke-linecap:round;stroke-linejoin:round;stroke-opacity:1"
     points="441.224,1283.16 441.224,1264.26 "
     id="polyline7"
     transform="translate(-56,-184)" />
  <polyline
     clip-path="url(#clip640)"
     style="fill:none;stroke:#000000;stroke-width:4;stroke-linecap:round;stroke-linejoin:round;stroke-opacity:1"
     points="912.557,197.264 912.557,216.162 "
     id="polyline8"
     transform="translate(-56,-184)" />
  <polyline
     clip-path="url(#clip640)"
     style="fill:none;stroke:#000000;stroke-width:4;stroke-linecap:round;stroke-linejoin:round;stroke-opacity:1"
     points="676.891,197.264 676.891,216.162 "
     id="polyline9"
     transform="translate(-56,-184)" />
  <polyline
     clip-path="url(#clip640)"
     style="fill:none;stroke:#000000;stroke-width:4;stroke-linecap:round;stroke-linejoin:round;stroke-opacity:1"
     points="441.224,197.264 441.224,216.162 "
     id="polyline10"
     transform="translate(-56,-184)" />
  <path
     clip-path="url(#clip640)"
     d="m 890.957,1369.53 h -5.768 v -35.8 l -9.781,5.96 -2.508,-4.08 12.979,-8.02 h 5.078 z"
     fill="#000000"
     fill-rule="nonzero"
     fill-opacity="1"
     id="path10"
     transform="translate(-56,-184)" />
  <path
     clip-path="url(#clip640)"
     d="m 915.347,1326.96 q 6.96,0 10.471,5.58 3.574,5.52 3.574,16.05 0,10.53 -3.574,16.11 -3.511,5.58 -10.471,5.58 -6.959,0 -10.533,-5.58 -3.511,-5.58 -3.511,-16.11 0,-10.53 3.511,-16.05 3.574,-5.58 10.533,-5.58 m 0,4.58 q -4.075,0 -6.082,4.01 -1.943,4.01 -1.943,13.04 0,9.03 1.943,13.1 2.007,4.02 6.082,4.02 4.013,0 6.019,-4.02 2.007,-4.07 2.007,-13.1 0,-8.97 -2.007,-12.98 -2.006,-4.07 -6.019,-4.07 z"
     fill="#000000"
     fill-rule="nonzero"
     fill-opacity="1"
     id="path11"
     transform="translate(-56,-184)" />
  <path
     clip-path="url(#clip640)"
     d="m 940.803,1300.68 q 5.655,0 8.508,4.53 2.904,4.49 2.904,13.04 0,8.56 -2.904,13.1 -2.853,4.53 -8.508,4.53 -5.654,0 -8.558,-4.53 -2.853,-4.54 -2.853,-13.1 0,-8.55 2.853,-13.04 2.904,-4.53 8.558,-4.53 m 0,3.72 q -3.311,0 -4.941,3.26 -1.579,3.26 -1.579,10.59 0,7.34 1.579,10.65 1.63,3.26 4.941,3.26 3.261,0 4.891,-3.26 1.63,-3.31 1.63,-10.65 0,-7.28 -1.63,-10.54 -1.63,-3.31 -4.891,-3.31 z"
     fill="#000000"
     fill-rule="nonzero"
     fill-opacity="1"
     id="path12"
     transform="translate(-56,-184)" />
  <path
     clip-path="url(#clip640)"
     d="m 644.21,1369.53 h -5.768 v -35.8 l -9.781,5.96 -2.508,-4.08 12.979,-8.02 h 5.078 z"
     fill="#000000"
     fill-rule="nonzero"
     fill-opacity="1"
     id="path13"
     transform="translate(-56,-184)" />
  <path
     clip-path="url(#clip640)"
     d="m 668.6,1326.96 q 6.96,0 10.471,5.58 3.574,5.52 3.574,16.05 0,10.53 -3.574,16.11 -3.511,5.58 -10.471,5.58 -6.959,0 -10.533,-5.58 -3.511,-5.58 -3.511,-16.11 0,-10.53 3.511,-16.05 3.574,-5.58 10.533,-5.58 m 0,4.58 q -4.075,0 -6.081,4.01 -1.944,4.01 -1.944,13.04 0,9.03 1.944,13.1 2.006,4.02 6.081,4.02 4.013,0 6.02,-4.02 2.006,-4.07 2.006,-13.1 0,-8.97 -2.006,-12.98 -2.007,-4.07 -6.02,-4.07 z"
     fill="#000000"
     fill-rule="nonzero"
     fill-opacity="1"
     id="path14"
     transform="translate(-56,-184)" />
  <path
     clip-path="url(#clip640)"
     d="M 682.645,1316.37 H 701.8 v 3.92 h -19.155 z"
     fill="#000000"
     fill-rule="nonzero"
     fill-opacity="1"
     id="path15"
     transform="translate(-56,-184)" />
  <path
     clip-path="url(#clip640)"
     d="m 716.573,1300.68 q 3.057,0 5.35,1.22 2.343,1.22 3.617,3.36 1.273,2.09 1.273,4.74 0,3.11 -1.426,5.96 -1.376,2.85 -4.28,6.17 -2.903,3.31 -8.813,9.22 h 15.334 l -0.56,3.92 h -20.123 v -3.72 q 6.827,-7.08 9.679,-10.34 2.853,-3.31 4.076,-5.76 1.223,-2.44 1.223,-5.25 0,-2.64 -1.529,-4.12 -1.528,-1.53 -4.075,-1.53 -2.089,0 -3.668,0.87 -1.579,0.86 -3.261,2.85 l -3.158,-2.45 q 2.089,-2.59 4.636,-3.87 2.547,-1.27 5.705,-1.27 z"
     fill="#000000"
     fill-rule="nonzero"
     fill-opacity="1"
     id="path16"
     transform="translate(-56,-184)" />
  <path
     clip-path="url(#clip640)"
     d="m 407.092,1369.53 h -5.769 v -35.8 l -9.781,5.96 -2.508,-4.08 12.979,-8.02 h 5.079 z"
     fill="#000000"
     fill-rule="nonzero"
     fill-opacity="1"
     id="path17"
     transform="translate(-56,-184)" />
  <path
     clip-path="url(#clip640)"
     d="m 431.482,1326.96 q 6.96,0 10.471,5.58 3.574,5.52 3.574,16.05 0,10.53 -3.574,16.11 -3.511,5.58 -10.471,5.58 -6.96,0 -10.534,-5.58 -3.511,-5.58 -3.511,-16.11 0,-10.53 3.511,-16.05 3.574,-5.58 10.534,-5.58 m 0,4.58 q -4.076,0 -6.082,4.01 -1.944,4.01 -1.944,13.04 0,9.03 1.944,13.1 2.006,4.02 6.082,4.02 4.013,0 6.019,-4.02 2.006,-4.07 2.006,-13.1 0,-8.97 -2.006,-12.98 -2.006,-4.07 -6.019,-4.07 z"
     fill="#000000"
     fill-rule="nonzero"
     fill-opacity="1"
     id="path18"
     transform="translate(-56,-184)" />
  <path
     clip-path="url(#clip640)"
     d="m 445.527,1316.37 h 19.154 v 3.92 h -19.154 z"
     fill="#000000"
     fill-rule="nonzero"
     fill-opacity="1"
     id="path19"
     transform="translate(-56,-184)" />
  <path
     clip-path="url(#clip640)"
     d="m 493.413,1326.86 h -4.432 v 8.41 h -4.534 v -8.41 h -14.569 v -3.36 l 10.239,-22.82 3.923,1.63 -9.221,20.83 h 9.679 l 0.408,-9.17 h 4.075 v 9.17 h 4.432 z"
     fill="#000000"
     fill-rule="nonzero"
     fill-opacity="1"
     id="path20"
     transform="translate(-56,-184)" />
  <path
     clip-path="url(#clip640)"
     d="m 622.298,1420.77 -8.69,-0.62 q 2.828,1.58 4.621,5.17 1.793,3.59 1.793,8.48 0,5.66 -1.931,10 -1.931,4.28 -5.586,6.69 -3.656,2.35 -8.69,2.35 -7.656,0 -11.932,-5.1 -4.276,-5.11 -4.276,-13.87 0,-8.55 4.483,-13.58 4.552,-5.04 13.449,-5.04 7.38,0 16.759,0.41 v 5.11 m -18.483,26.97 q 9.379,0 9.379,-13.94 0,-4.89 -1.448,-8.41 -1.379,-3.59 -3.517,-5.38 h -0.345 q -5.173,0 -8.07,1.38 -2.896,1.38 -4.138,4.41 -1.241,2.97 -1.241,8.07 0,13.87 9.38,13.87 z"
     fill="#000000"
     fill-rule="nonzero"
     fill-opacity="1"
     id="path21"
     transform="translate(-56,-184)" />
  <path
     clip-path="url(#clip640)"
     d="m 637.61,1400.56 q 4.414,0 6.966,2.35 2.62,2.34 2.62,5.93 0,2.34 -1.172,4.55 -1.104,2.14 -3.655,4.9 -2.552,2.75 -7.518,7.24 h 13.035 l -0.552,4.27 h -18.552 v -4 q 5.793,-5.58 8.276,-8.2 2.483,-2.69 3.517,-4.56 1.104,-1.86 1.104,-3.79 0,-2.07 -1.242,-3.24 -1.241,-1.17 -3.241,-1.17 -1.793,0 -3.104,0.69 -1.31,0.69 -2.759,2.34 l -3.379,-2.62 q 3.793,-4.69 9.656,-4.69 z"
     fill="#000000"
     fill-rule="nonzero"
     fill-opacity="1"
     id="path22"
     transform="translate(-56,-184)" />
  <polyline
     clip-path="url(#clip640)"
     style="fill:none;stroke:#000000;stroke-width:4;stroke-linecap:round;stroke-linejoin:round;stroke-opacity:1"
     points="305.729,1283.16 305.729,197.264 "
     id="polyline22"
     transform="translate(-56,-184)" />
  <polyline
     clip-path="url(#clip640)"
     style="fill:none;stroke:#000000;stroke-width:4;stroke-linecap:round;stroke-linejoin:round;stroke-opacity:1"
     points="929.764,1283.16 929.764,197.264 "
     id="polyline23"
     transform="translate(-56,-184)" />
  <polyline
     clip-path="url(#clip640)"
     style="fill:none;stroke:#000000;stroke-width:4;stroke-linecap:round;stroke-linejoin:round;stroke-opacity:1"
     points="305.729,372.228 324.627,372.228 "
     id="polyline24"
     transform="translate(-56,-184)" />
  <polyline
     clip-path="url(#clip640)"
     style="fill:none;stroke:#000000;stroke-width:4;stroke-linecap:round;stroke-linejoin:round;stroke-opacity:1"
     points="305.729,577.684 324.627,577.684 "
     id="polyline25"
     transform="translate(-56,-184)" />
  <polyline
     clip-path="url(#clip640)"
     style="fill:none;stroke:#000000;stroke-width:4;stroke-linecap:round;stroke-linejoin:round;stroke-opacity:1"
     points="305.729,783.14 324.627,783.14 "
     id="polyline26"
     transform="translate(-56,-184)" />
  <polyline
     clip-path="url(#clip640)"
     style="fill:none;stroke:#000000;stroke-width:4;stroke-linecap:round;stroke-linejoin:round;stroke-opacity:1"
     points="305.729,988.596 324.627,988.596 "
     id="polyline27"
     transform="translate(-56,-184)" />
  <polyline
     clip-path="url(#clip640)"
     style="fill:none;stroke:#000000;stroke-width:4;stroke-linecap:round;stroke-linejoin:round;stroke-opacity:1"
     points="305.729,1194.05 324.627,1194.05 "
     id="polyline28"
     transform="translate(-56,-184)" />
  <polyline
     clip-path="url(#clip640)"
     style="fill:none;stroke:#000000;stroke-width:4;stroke-linecap:round;stroke-linejoin:round;stroke-opacity:1"
     points="929.764,372.228 910.866,372.228 "
     id="polyline29"
     transform="translate(-56,-184)" />
  <polyline
     clip-path="url(#clip640)"
     style="fill:none;stroke:#000000;stroke-width:4;stroke-linecap:round;stroke-linejoin:round;stroke-opacity:1"
     points="929.764,577.684 910.866,577.684 "
     id="polyline30"
     transform="translate(-56,-184)" />
  <polyline
     clip-path="url(#clip640)"
     style="fill:none;stroke:#000000;stroke-width:4;stroke-linecap:round;stroke-linejoin:round;stroke-opacity:1"
     points="929.764,783.14 910.866,783.14 "
     id="polyline31"
     transform="translate(-56,-184)" />
  <polyline
     clip-path="url(#clip640)"
     style="fill:none;stroke:#000000;stroke-width:4;stroke-linecap:round;stroke-linejoin:round;stroke-opacity:1"
     points="929.764,988.596 910.866,988.596 "
     id="polyline32"
     transform="translate(-56,-184)" />
  <polyline
     clip-path="url(#clip640)"
     style="fill:none;stroke:#000000;stroke-width:4;stroke-linecap:round;stroke-linejoin:round;stroke-opacity:1"
     points="929.764,1194.05 910.866,1194.05 "
     id="polyline33"
     transform="translate(-56,-184)" />
  <path
     clip-path="url(#clip640)"
     d="m 173.298,401.888 h -5.768 v -35.802 l -9.781,5.957 -2.508,-4.076 12.978,-8.025 h 5.079 z"
     fill="#000000"
     fill-rule="nonzero"
     fill-opacity="1"
     id="path33"
     transform="translate(-56,-184)" />
  <path
     clip-path="url(#clip640)"
     d="m 197.688,359.315 q 6.96,0 10.471,5.58 3.574,5.518 3.574,16.051 0,10.534 -3.574,16.114 -3.511,5.58 -10.471,5.58 -6.959,0 -10.533,-5.58 -3.511,-5.58 -3.511,-16.114 0,-10.533 3.511,-16.051 3.574,-5.58 10.533,-5.58 m 0,4.577 q -4.075,0 -6.082,4.013 -1.943,4.013 -1.943,13.041 0,9.029 1.943,13.104 2.007,4.013 6.082,4.013 4.013,0 6.019,-4.013 2.007,-4.075 2.007,-13.104 0,-8.966 -2.007,-12.979 -2.006,-4.075 -6.019,-4.075 z"
     fill="#000000"
     fill-rule="nonzero"
     fill-opacity="1"
     id="path34"
     transform="translate(-56,-184)" />
  <path
     clip-path="url(#clip640)"
     d="m 211.733,348.725 h 19.155 v 3.923 h -19.155 z"
     fill="#000000"
     fill-rule="nonzero"
     fill-opacity="1"
     id="path35"
     transform="translate(-56,-184)" />
  <path
     clip-path="url(#clip640)"
     d="m 250.501,367.625 h -4.687 v -29.089 l -7.947,4.84 -2.038,-3.311 10.545,-6.521 h 4.127 z"
     fill="#000000"
     fill-rule="nonzero"
     fill-opacity="1"
     id="path36"
     transform="translate(-56,-184)" />
  <path
     clip-path="url(#clip640)"
     d="m 270.318,333.034 q 5.655,0 8.507,4.534 2.904,4.483 2.904,13.042 0,8.558 -2.904,13.092 -2.852,4.534 -8.507,4.534 -5.655,0 -8.559,-4.534 -2.852,-4.534 -2.852,-13.092 0,-8.559 2.852,-13.042 2.904,-4.534 8.559,-4.534 m 0,3.719 q -3.311,0 -4.942,3.261 -1.579,3.26 -1.579,10.596 0,7.336 1.579,10.647 1.631,3.26 4.942,3.26 3.26,0 4.89,-3.26 1.631,-3.311 1.631,-10.647 0,-7.285 -1.631,-10.545 -1.63,-3.312 -4.89,-3.312 z"
     fill="#000000"
     fill-rule="nonzero"
     fill-opacity="1"
     id="path37"
     transform="translate(-56,-184)" />
  <path
     clip-path="url(#clip640)"
     d="m 176.253,607.344 h -5.769 v -35.802 l -9.781,5.957 -2.508,-4.076 12.979,-8.025 h 5.079 z"
     fill="#000000"
     fill-rule="nonzero"
     fill-opacity="1"
     id="path38"
     transform="translate(-56,-184)" />
  <path
     clip-path="url(#clip640)"
     d="m 200.643,564.771 q 6.96,0 10.471,5.58 3.574,5.518 3.574,16.051 0,10.534 -3.574,16.114 -3.511,5.58 -10.471,5.58 -6.96,0 -10.534,-5.58 -3.511,-5.58 -3.511,-16.114 0,-10.533 3.511,-16.051 3.574,-5.58 10.534,-5.58 m 0,4.577 q -4.076,0 -6.082,4.013 -1.944,4.013 -1.944,13.041 0,9.029 1.944,13.104 2.006,4.013 6.082,4.013 4.013,0 6.019,-4.013 2.007,-4.075 2.007,-13.104 0,-8.966 -2.007,-12.979 -2.006,-4.075 -6.019,-4.075 z"
     fill="#000000"
     fill-rule="nonzero"
     fill-opacity="1"
     id="path39"
     transform="translate(-56,-184)" />
  <path
     clip-path="url(#clip640)"
     d="m 214.688,554.181 h 19.154 v 3.923 h -19.154 z"
     fill="#000000"
     fill-rule="nonzero"
     fill-opacity="1"
     id="path40"
     transform="translate(-56,-184)" />
  <path
     clip-path="url(#clip640)"
     d="m 253.456,573.081 h -4.687 v -29.089 l -7.947,4.84 -2.038,-3.311 10.545,-6.521 h 4.127 z"
     fill="#000000"
     fill-rule="nonzero"
     fill-opacity="1"
     id="path41"
     transform="translate(-56,-184)" />
  <path
     clip-path="url(#clip640)"
     d="m 270.674,538.49 q 3.057,0 5.35,1.223 2.343,1.223 3.616,3.362 1.274,2.089 1.274,4.738 0,3.108 -1.426,5.96 -1.376,2.853 -4.28,6.165 -2.903,3.311 -8.813,9.22 h 15.334 l -0.56,3.923 h -20.123 v -3.719 q 6.827,-7.081 9.679,-10.341 2.853,-3.312 4.076,-5.757 1.223,-2.445 1.223,-5.247 0,-2.649 -1.529,-4.127 -1.528,-1.528 -4.075,-1.528 -2.089,0 -3.668,0.866 -1.579,0.866 -3.261,2.853 l -3.158,-2.445 q 2.089,-2.598 4.636,-3.872 2.547,-1.274 5.705,-1.274 z"
     fill="#000000"
     fill-rule="nonzero"
     fill-opacity="1"
     id="path42"
     transform="translate(-56,-184)" />
  <path
     clip-path="url(#clip640)"
     d="m 173.349,812.8 h -5.768 v -35.802 l -9.781,5.957 -2.508,-4.076 12.978,-8.025 h 5.079 z"
     fill="#000000"
     fill-rule="nonzero"
     fill-opacity="1"
     id="path43"
     transform="translate(-56,-184)" />
  <path
     clip-path="url(#clip640)"
     d="m 197.739,770.227 q 6.96,0 10.471,5.58 3.574,5.518 3.574,16.051 0,10.534 -3.574,16.114 -3.511,5.58 -10.471,5.58 -6.959,0 -10.533,-5.58 -3.512,-5.58 -3.512,-16.114 0,-10.533 3.512,-16.051 3.574,-5.58 10.533,-5.58 m 0,4.577 q -4.075,0 -6.082,4.013 -1.943,4.013 -1.943,13.041 0,9.029 1.943,13.104 2.007,4.013 6.082,4.013 4.013,0 6.019,-4.013 2.007,-4.075 2.007,-13.104 0,-8.966 -2.007,-12.979 -2.006,-4.075 -6.019,-4.075 z"
     fill="#000000"
     fill-rule="nonzero"
     fill-opacity="1"
     id="path44"
     transform="translate(-56,-184)" />
  <path
     clip-path="url(#clip640)"
     d="m 211.784,759.637 h 19.155 v 3.923 h -19.155 z"
     fill="#000000"
     fill-rule="nonzero"
     fill-opacity="1"
     id="path45"
     transform="translate(-56,-184)" />
  <path
     clip-path="url(#clip640)"
     d="m 250.552,778.537 h -4.687 v -29.089 l -7.947,4.84 -2.038,-3.311 10.545,-6.521 h 4.127 z"
     fill="#000000"
     fill-rule="nonzero"
     fill-opacity="1"
     id="path46"
     transform="translate(-56,-184)" />
  <path
     clip-path="url(#clip640)"
     d="m 281.729,770.131 h -4.432 v 8.406 h -4.534 v -8.406 h -14.57 v -3.362 l 10.24,-22.823 3.923,1.631 -9.221,20.835 h 9.679 l 0.408,-9.169 h 4.075 v 9.169 h 4.432 z"
     fill="#000000"
     fill-rule="nonzero"
     fill-opacity="1"
     id="path47"
     transform="translate(-56,-184)" />
  <path
     clip-path="url(#clip640)"
     d="m 173.808,1018.26 h -5.769 v -35.806 l -9.781,5.957 -2.508,-4.076 12.979,-8.025 h 5.079 z"
     fill="#000000"
     fill-rule="nonzero"
     fill-opacity="1"
     id="path48"
     transform="translate(-56,-184)" />
  <path
     clip-path="url(#clip640)"
     d="m 198.198,975.683 q 6.959,0 10.471,5.58 3.573,5.518 3.573,16.051 0,10.536 -3.573,16.116 -3.512,5.58 -10.471,5.58 -6.96,0 -10.534,-5.58 -3.511,-5.58 -3.511,-16.116 0,-10.533 3.511,-16.051 3.574,-5.58 10.534,-5.58 m 0,4.577 q -4.076,0 -6.082,4.013 -1.944,4.013 -1.944,13.041 0,9.026 1.944,13.106 2.006,4.01 6.082,4.01 4.012,0 6.019,-4.01 2.006,-4.08 2.006,-13.106 0,-8.966 -2.006,-12.979 -2.007,-4.075 -6.019,-4.075 z"
     fill="#000000"
     fill-rule="nonzero"
     fill-opacity="1"
     id="path49"
     transform="translate(-56,-184)" />
  <path
     clip-path="url(#clip640)"
     d="m 212.242,965.093 h 19.155 v 3.923 h -19.155 z"
     fill="#000000"
     fill-rule="nonzero"
     fill-opacity="1"
     id="path50"
     transform="translate(-56,-184)" />
  <path
     clip-path="url(#clip640)"
     d="m 251.01,983.993 h -4.686 v -29.089 l -7.948,4.84 -2.037,-3.311 10.545,-6.521 h 4.126 z"
     fill="#000000"
     fill-rule="nonzero"
     fill-opacity="1"
     id="path51"
     transform="translate(-56,-184)" />
  <path
     clip-path="url(#clip640)"
     d="m 272.305,961.578 q 2.598,0 4.737,1.222 2.14,1.223 3.414,3.668 1.273,2.446 1.273,5.961 0,3.617 -1.477,6.419 -1.427,2.751 -3.923,4.279 -2.445,1.477 -5.451,1.477 -5.96,0 -8.711,-4.381 -2.751,-4.432 -2.751,-12.226 0,-5.553 1.528,-9.73 1.58,-4.229 4.483,-6.521 2.904,-2.344 6.878,-2.344 3.871,0 7.03,2.089 l -1.834,3.108 q -2.394,-1.478 -5.247,-1.478 -3.668,0 -5.808,3.515 -2.139,3.515 -2.343,9.425 3.158,-4.483 8.202,-4.483 m -1.427,19.307 q 2.955,0 4.534,-2.241 1.579,-2.242 1.579,-6.062 0,-7.285 -5.501,-7.285 -2.242,0 -4.127,1.273 -1.885,1.223 -3.209,3.413 0.153,5.604 1.732,8.253 1.63,2.649 4.992,2.649 z"
     fill="#000000"
     fill-rule="nonzero"
     fill-opacity="1"
     id="path52"
     transform="translate(-56,-184)" />
  <path
     clip-path="url(#clip640)"
     d="m 173.145,1223.71 h -5.768 v -35.8 l -9.781,5.96 -2.508,-4.08 12.979,-8.02 h 5.078 z"
     fill="#000000"
     fill-rule="nonzero"
     fill-opacity="1"
     id="path53"
     transform="translate(-56,-184)" />
  <path
     clip-path="url(#clip640)"
     d="m 197.535,1181.14 q 6.96,0 10.471,5.58 3.574,5.52 3.574,16.05 0,10.53 -3.574,16.11 -3.511,5.58 -10.471,5.58 -6.959,0 -10.533,-5.58 -3.511,-5.58 -3.511,-16.11 0,-10.53 3.511,-16.05 3.574,-5.58 10.533,-5.58 m 0,4.58 q -4.075,0 -6.081,4.01 -1.944,4.01 -1.944,13.04 0,9.03 1.944,13.1 2.006,4.02 6.081,4.02 4.013,0 6.02,-4.02 2.006,-4.07 2.006,-13.1 0,-8.97 -2.006,-12.98 -2.007,-4.07 -6.02,-4.07 z"
     fill="#000000"
     fill-rule="nonzero"
     fill-opacity="1"
     id="path54"
     transform="translate(-56,-184)" />
  <path
     clip-path="url(#clip640)"
     d="m 211.58,1170.55 h 19.155 v 3.92 H 211.58 Z"
     fill="#000000"
     fill-rule="nonzero"
     fill-opacity="1"
     id="path55"
     transform="translate(-56,-184)" />
  <path
     clip-path="url(#clip640)"
     d="m 250.348,1189.45 h -4.687 v -29.09 l -7.947,4.84 -2.038,-3.31 10.546,-6.52 h 4.126 z"
     fill="#000000"
     fill-rule="nonzero"
     fill-opacity="1"
     id="path56"
     transform="translate(-56,-184)" />
  <path
     clip-path="url(#clip640)"
     d="m 274.546,1171.16 q 7.183,2.9 7.183,9.17 0,2.8 -1.528,5.04 -1.477,2.19 -4.177,3.47 -2.7,1.22 -6.114,1.22 -3.464,0 -6.113,-1.22 -2.649,-1.23 -4.126,-3.42 -1.427,-2.19 -1.427,-4.99 0,-3.16 1.681,-5.3 1.732,-2.14 5.044,-3.56 -2.7,-1.38 -4.025,-3.31 -1.273,-1.99 -1.273,-4.64 0,-2.75 1.426,-4.74 1.477,-1.98 3.821,-3 2.394,-1.02 5.094,-1.02 2.649,0 4.993,0.97 2.394,0.96 3.871,2.95 1.478,1.94 1.478,4.69 0,2.54 -1.427,4.38 -1.426,1.83 -4.381,3.31 m -4.534,-12.79 q -2.649,0 -4.228,1.38 -1.528,1.37 -1.528,3.92 0,2.45 1.477,3.72 1.528,1.27 4.84,2.34 l 0.866,0.31 q 2.292,-1.33 3.311,-2.8 1.019,-1.48 1.019,-3.62 0,-2.39 -1.529,-3.82 -1.477,-1.43 -4.228,-1.43 m -0.051,27.97 q 3.159,0 4.993,-1.63 1.885,-1.63 1.885,-4.33 0,-1.83 -0.714,-3.06 -0.713,-1.27 -2.292,-2.19 -1.579,-0.96 -4.432,-1.93 l -1.274,-0.46 q -2.547,1.22 -3.77,3.11 -1.222,1.83 -1.222,4.58 0,2.8 1.834,4.38 1.834,1.53 4.992,1.53 z"
     fill="#000000"
     fill-rule="nonzero"
     fill-opacity="1"
     id="path57"
     transform="translate(-56,-184)" />
  <path
     clip-path="url(#clip640)"
     d="m 112.418,968.189 q 0,-1.31 -0.414,-2.345 l 4.414,-1.655 q 1.241,2.276 1.241,5.035 0,3.517 -2.069,5.586 -2.138,2 -5.931,2 h -8.276 l 2.896,3.725 -3.103,2.276 -4.6902,-6.001 H 76.2777 q -5.5175,0 -8.3453,-2.689 -2.8277,-2.759 -2.8277,-7.173 0,-4.276 2.4829,-6.69 2.4829,-2.414 6.4831,-2.414 12.2076,0 22.7599,12.621 h 12.6904 q 1.448,0 2.207,-0.483 0.69,-0.551 0.69,-1.793 m -42.8993,-1.241 q 0,1.655 1.3794,2.621 1.3104,0.896 4.0692,0.896 h 15.5181 q -4.0692,-3.586 -7.9314,-5.104 -3.8623,-1.517 -8.4833,-1.517 -4.552,0 -4.552,3.104 z"
     fill="#000000"
     fill-rule="nonzero"
     fill-opacity="1"
     id="path58"
     transform="translate(-56,-184)" />
  <path
     clip-path="url(#clip640)"
     d="m 101.521,943.015 q 0,-4.414 2.345,-6.966 2.344,-2.62 5.931,-2.62 2.345,0 4.552,1.172 2.138,1.104 4.897,3.655 2.759,2.552 7.242,7.518 v -13.035 l 4.276,0.552 v 18.552 h -4.001 q -5.586,-5.793 -8.276,-8.276 -2.621,-2.483 -4.483,-3.517 -1.862,-1.104 -3.793,-1.104 -2.069,0 -3.242,1.242 -1.172,1.241 -1.172,3.241 0,1.793 0.689,3.104 0.69,1.31 2.345,2.759 l -2.621,3.379 q -4.689,-3.793 -4.689,-9.656 z"
     fill="#000000"
     fill-rule="nonzero"
     fill-opacity="1"
     id="path59"
     transform="translate(-56,-184)" />
  <path
     clip-path="url(#clip640)"
     d="m 108.349,879.563 q 2.207,0 3.31,-0.758 1.035,-0.759 1.586,-2.276 l 4.414,1.448 q -0.344,2.828 -1.586,4.552 -1.241,1.724 -3.862,2.552 5.448,3.655 5.448,10.828 0,5.38 -3.034,8.483 -3.035,3.104 -7.932,3.104 -5.793,0 -8.8968,-4.138 -3.1036,-4.207 -3.1036,-11.863 v -5.586 h -2.6898 q -3.8623,0 -5.5176,1.862 -1.6553,1.862 -1.6553,5.724 0,4 1.9312,9.794 l -4.621,1.586 q -2.4829,-6.759 -2.4829,-12.552 0,-6.414 3.1726,-9.587 3.1037,-3.173 8.8971,-3.173 h 16.6221 m 4.552,14.898 q 0,-5.449 -5.656,-8.552 h -8.3453 v 4.758 q 0,10.07 7.4483,10.07 3.242,0 4.897,-1.586 1.656,-1.587 1.656,-4.69 z"
     fill="#000000"
     fill-rule="nonzero"
     fill-opacity="1"
     id="path60"
     transform="translate(-56,-184)" />
  <path
     clip-path="url(#clip640)"
     d="m 70.2084,854.183 q 0,2.896 1.3104,4.138 1.2415,1.241 3.9313,1.241 h 5.0348 v -8.828 l 4.8968,0.69 v 8.138 h 31.4503 v 6.345 H 85.3817 v 6.484 h -4.8968 v -6.484 h -4.9658 q -4.69,0 -7.5177,-2.965 -2.8967,-3.035 -2.8967,-8.415 0,-2.482 0.4828,-4.414 0.4138,-2 1.3793,-4.276 l 4.621,2 q -1.3794,3.104 -1.3794,6.346 z"
     fill="#000000"
     fill-rule="nonzero"
     fill-opacity="1"
     id="path61"
     transform="translate(-56,-184)" />
  <path
     clip-path="url(#clip640)"
     d="m 115.177,825.077 q 2.482,3.587 2.482,8.139 0,4.621 -2.62,7.242 -2.69,2.552 -7.725,2.552 H 85.3817 v 6.345 h -4.8968 v -6.345 h -8.2074 l -0.7587,-6.346 h 8.9661 v -8.621 l 4.8968,0.69 v 7.931 h 21.6563 q 2.828,0 4.138,-0.965 1.242,-1.035 1.242,-3.38 0,-2.276 -1.587,-4.828 z"
     fill="#000000"
     fill-rule="nonzero"
     fill-opacity="1"
     id="path62"
     transform="translate(-56,-184)" />
  <path
     clip-path="url(#clip640)"
     d="m 97.5893,791.076 q 1.5863,0 3.2417,0.137 v 23.174 q 6,-0.414 8.828,-3.034 2.828,-2.621 2.828,-6.759 0,-2.621 -0.759,-4.828 -0.759,-2.207 -2.414,-4.621 l 3.793,-2.759 q 4.552,5.793 4.552,12.69 0,7.587 -4.965,11.863 -4.966,4.207 -13.6563,4.207 -5.6555,0 -10.0006,-1.793 -4.4141,-1.862 -6.897,-5.242 -2.4829,-3.448 -2.4829,-8.069 0,-7.242 4.7589,-11.104 4.7589,-3.862 13.1732,-3.862 m -1.8622,6.276 q -5.3796,0 -8.2073,2.138 -2.8278,2.138 -2.8278,6.414 0,7.794 11.4489,8.483 v -17.035 z"
     fill="#000000"
     fill-rule="nonzero"
     fill-opacity="1"
     id="path63"
     transform="translate(-56,-184)" />
  <path
     clip-path="url(#clip640)"
     d="m 79.6572,764.798 q 0,-1.931 0.4139,-3.586 l 6.2072,1.172 q -0.4138,1.655 -0.4138,3.173 0,3.379 2.4829,5.448 2.4829,2.069 7.7246,3.242 h 20.76 v 6.345 H 80.4849 v -5.448 l 7.3797,-0.621 q -4.0692,-1.449 -6.1383,-3.931 -2.0691,-2.483 -2.0691,-5.794 z"
     fill="#000000"
     fill-rule="nonzero"
     fill-opacity="1"
     id="path64"
     transform="translate(-56,-184)" />
  <path
     clip-path="url(#clip640)"
     d="m 115.177,717.347 q 2.482,3.587 2.482,8.138 0,4.621 -2.62,7.242 -2.69,2.552 -7.725,2.552 H 85.3817 v 6.345 h -4.8968 v -6.345 h -8.2074 l -0.7587,-6.345 h 8.9661 v -8.621 l 4.8968,0.689 v 7.932 h 21.6563 q 2.828,0 4.138,-0.966 1.242,-1.034 1.242,-3.379 0,-2.276 -1.587,-4.828 z"
     fill="#000000"
     fill-rule="nonzero"
     fill-opacity="1"
     id="path65"
     transform="translate(-56,-184)" />
  <path
     clip-path="url(#clip640)"
     d="m 79.6572,695.001 q 0,-1.931 0.4139,-3.586 l 6.2072,1.172 q -0.4138,1.655 -0.4138,3.173 0,3.379 2.4829,5.448 2.4829,2.069 7.7246,3.242 h 20.76 v 6.345 H 80.4849 v -5.449 l 7.3797,-0.62 q -4.0692,-1.449 -6.1383,-3.932 -2.0691,-2.482 -2.0691,-5.793 z"
     fill="#000000"
     fill-rule="nonzero"
     fill-opacity="1"
     id="path66"
     transform="translate(-56,-184)" />
  <path
     clip-path="url(#clip640)"
     d="m 108.349,659.689 q 2.207,0 3.31,-0.759 1.035,-0.759 1.586,-2.276 l 4.414,1.448 q -0.344,2.828 -1.586,4.552 -1.241,1.724 -3.862,2.552 5.448,3.656 5.448,10.828 0,5.38 -3.034,8.484 -3.035,3.103 -7.932,3.103 -5.793,0 -8.8968,-4.138 -3.1036,-4.207 -3.1036,-11.863 v -5.586 h -2.6898 q -3.8623,0 -5.5176,1.862 -1.6553,1.862 -1.6553,5.724 0,4.001 1.9312,9.794 L 82.1401,685 q -2.4829,-6.759 -2.4829,-12.552 0,-6.414 3.1726,-9.587 3.1037,-3.172 8.8971,-3.172 h 16.6221 m 4.552,14.897 q 0,-5.449 -5.656,-8.552 h -8.3453 v 4.759 q 0,10.069 7.4483,10.069 3.242,0 4.897,-1.586 1.656,-1.586 1.656,-4.69 z"
     fill="#000000"
     fill-rule="nonzero"
     fill-opacity="1"
     id="path67"
     transform="translate(-56,-184)" />
  <path
     clip-path="url(#clip640)"
     d="m 116.832,640.308 v 6.345 H 80.4849 v -6.345 h 36.3471 m -53.7964,3.242 q 0,-2 1.2414,-3.242 1.2415,-1.241 3.1037,-1.241 1.8621,0 3.1036,1.241 1.1725,1.242 1.1725,3.242 0,1.931 -1.1725,3.172 -1.2415,1.242 -3.1036,1.242 -1.8622,0 -3.1037,-1.242 -1.2414,-1.241 -1.2414,-3.172 z"
     fill="#000000"
     fill-rule="nonzero"
     fill-opacity="1"
     id="path68"
     transform="translate(-56,-184)" />
  <path
     clip-path="url(#clip640)"
     d="m 79.6572,610.099 q 0,-4.965 2.9657,-7.724 2.9657,-2.828 8.1384,-2.828 h 26.0707 v 6.345 H 91.6579 q -3.8623,0 -5.4486,1.449 -1.5863,1.448 -1.5863,4.276 0,2.897 1.6553,5.104 1.6553,2.207 4.7589,4.138 h 25.7948 v 6.345 H 80.4849 v -5.449 l 5.3796,-0.551 q -2.8967,-1.932 -4.552,-4.759 -1.6553,-2.897 -1.6553,-6.346 z"
     fill="#000000"
     fill-rule="nonzero"
     fill-opacity="1"
     id="path69"
     transform="translate(-56,-184)" />
  <path
     clip-path="url(#clip640)"
     d="m 116.832,580.443 v 6.345 H 80.4849 v -6.345 h 36.3471 m -53.7964,3.241 q 0,-2 1.2414,-3.241 1.2415,-1.242 3.1037,-1.242 1.8621,0 3.1036,1.242 1.1725,1.241 1.1725,3.241 0,1.931 -1.1725,3.173 -1.2415,1.241 -3.1036,1.241 -1.8622,0 -3.1037,-1.241 -1.2414,-1.242 -1.2414,-3.173 z"
     fill="#000000"
     fill-rule="nonzero"
     fill-opacity="1"
     id="path70"
     transform="translate(-56,-184)" />
  <path
     clip-path="url(#clip640)"
     d="m 79.6572,550.234 q 0,-4.966 2.9657,-7.725 2.9657,-2.827 8.1384,-2.827 h 26.0707 v 6.345 H 91.6579 q -3.8623,0 -5.4486,1.448 -1.5863,1.449 -1.5863,4.276 0,2.897 1.6553,5.104 1.6553,2.207 4.7589,4.138 h 25.7948 v 6.345 H 80.4849 v -5.448 l 5.3796,-0.552 q -2.8967,-1.931 -4.552,-4.759 -1.6553,-2.897 -1.6553,-6.345 z"
     fill="#000000"
     fill-rule="nonzero"
     fill-opacity="1"
     id="path71"
     transform="translate(-56,-184)" />
  <path
     clip-path="url(#clip640)"
     d="m 82.1401,497.61 q 0.6897,2.069 0.8966,4.552 0.2069,2.483 0.2069,6.07 2.8968,-6.415 9.173,-6.415 5.4486,0 8.8974,3.725 3.448,3.724 3.448,10.138 0,2.483 -0.69,4.621 0.552,0.828 1.518,1.311 0.896,0.482 1.862,0.482 2.966,0 2.966,-4.759 v -5.793 q 0,-3.655 1.31,-6.483 1.31,-2.828 3.586,-4.345 2.276,-1.586 5.173,-1.586 5.311,0 8.139,4.345 2.896,4.345 2.896,12.69 0,5.862 -1.241,9.311 -1.173,3.379 -3.587,4.828 -2.413,1.448 -6.207,1.448 v -5.724 q 2.207,0 3.449,-0.828 1.31,-0.828 1.931,-2.966 0.69,-2.138 0.69,-6.069 0,-5.724 -1.449,-8.138 -1.379,-2.483 -4.207,-2.483 -2.552,0 -3.862,1.931 -1.311,1.931 -1.311,5.379 v 5.725 q 0,4.621 -1.931,7.035 -2,2.345 -4.966,2.345 -1.793,0 -3.448,-1.035 -1.655,-1.034 -2.966,-2.965 -1.655,3.172 -4.069,4.689 -2.4829,1.449 -6.0004,1.449 -3.6554,0 -6.5521,-1.793 -2.8967,-1.863 -4.483,-5.035 -1.6553,-3.242 -1.6553,-7.173 0.069,-4.276 -0.2758,-7.173 -0.4139,-2.897 -1.0346,-4.759 -0.6897,-1.931 -1.9311,-4.69 l 5.7244,-1.862 m 2.0691,18.484 q 0,3.586 2.276,5.587 2.207,1.931 5.8624,1.931 3.7244,0 6.0004,-2 2.207,-2.001 2.207,-5.656 0,-3.724 -2.1381,-5.655 -2.207,-2.001 -6.1382,-2.001 -8.0695,0 -8.0695,7.794 z"
     fill="#000000"
     fill-rule="nonzero"
     fill-opacity="1"
     id="path72"
     transform="translate(-56,-184)" />
  <path
     clip-path="url(#clip640)"
     d="m -102.778,57.8516 q -3.518,0 -5.587,-2.0691 -2,-2.138 -2,-5.9313 V 6.05552 l 6.345,-0.75866 V 49.7132 q 0,1.5174 0.483,2.2071 0.552,0.6897 1.793,0.6897 1.311,0 2.3454,-0.4139 l 1.6553,4.4141 q -2.2757,1.2414 -5.0347,1.2414 z"
     fill="#000000"
     fill-rule="nonzero"
     fill-opacity="1"
     id="path73"
     transform="translate(-56,-184)" />
  <path
     clip-path="url(#clip640)"
     d="m -74.0178,19.8494 q 1.9311,0 3.5864,0.4138 l -1.1725,6.2073 q -1.6553,-0.4138 -3.1726,-0.4138 -3.3795,0 -5.4486,2.4829 -2.0691,2.4829 -3.2415,7.7246 V 57.024 h -6.3452 V 20.6771 h 5.4486 l 0.6207,7.3797 q 1.4483,-4.0692 3.9312,-6.1383 2.4829,-2.0691 5.7935,-2.0691 z"
     fill="#000000"
     fill-rule="nonzero"
     fill-opacity="1"
     id="path74"
     transform="translate(-56,-184)" />
  <path
     clip-path="url(#clip640)"
     d="m -65.4656,24.8842 h 25.9325 v 5.3107 h -25.9325 v -5.3107 m 0,13.3111 h 25.9325 v 5.3107 h -25.9325 z"
     fill="#000000"
     fill-rule="nonzero"
     fill-opacity="1"
     id="path75"
     transform="translate(-56,-184)" />
  <path
     clip-path="url(#clip640)"
     d="M -12.9798,57.024 H -19.325 V 17.6424 l -10.7592,6.5521 -2.7588,-4.483 14.2767,-8.8281 h 5.5865 z"
     fill="#000000"
     fill-rule="nonzero"
     fill-opacity="1"
     id="path76"
     transform="translate(-56,-184)" />
  <path
     clip-path="url(#clip640)"
     d="m 2.81423,48.2649 q 2.06908,0 3.44847,1.3794 1.37939,1.3794 1.37939,3.3795 0,2.0001 -1.37939,3.4484 -1.37939,1.3794 -3.44847,1.3794 -2.000121,0 -3.379511,-1.3794 -1.379389,-1.4483 -1.379389,-3.4484 0,-2.0001 1.379389,-3.3795 1.37939,-1.3794 3.379511,-1.3794 z"
     fill="#000000"
     fill-rule="nonzero"
     fill-opacity="1"
     id="path77"
     transform="translate(-56,-184)" />
  <path
     clip-path="url(#clip640)"
     d="m 30.402,10.1937 q 7.6557,0 11.5179,6.1383 3.9313,6.0693 3.9313,17.6562 0,11.5869 -3.9313,17.7251 -3.8622,6.1383 -11.5179,6.1383 -7.6556,0 -11.5868,-6.1383 -3.8623,-6.1382 -3.8623,-17.7251 0,-11.5869 3.8623,-17.6562 3.9312,-6.1383 11.5868,-6.1383 m 0,5.0348 q -4.483,0 -6.69,4.414 -2.1381,4.4141 -2.1381,14.3457 0,9.9316 2.1381,14.4146 2.207,4.4141 6.69,4.4141 4.4141,0 6.6211,-4.4141 2.207,-4.483 2.207,-14.4146 0,-9.8627 -2.207,-14.2767 -2.207,-4.483 -6.6211,-4.483 z"
     fill="#000000"
     fill-rule="nonzero"
     fill-opacity="1"
     id="path78"
     transform="translate(-56,-184)" />
  <path
     clip-path="url(#clip640)"
     d="m 83.6465,37.7815 q 0,1.5863 -0.1379,3.2416 H 60.3348 q 0.4138,6.0003 3.0347,8.8281 2.6208,2.8277 6.759,2.8277 2.6208,0 4.8278,-0.7586 2.2071,-0.7587 4.621,-2.414 l 2.7588,3.7933 q -5.7935,4.552 -12.6904,4.552 -7.5867,0 -11.8628,-4.9658 -4.2071,-4.9658 -4.2071,-13.6559 0,-5.6555 1.7932,-10.0006 1.8622,-4.4141 5.2417,-6.897 3.4485,-2.4829 8.0694,-2.4829 7.2418,0 11.1041,4.7589 3.8623,4.7589 3.8623,13.1732 m -6.2762,-1.8622 q 0,-5.3796 -2.1381,-8.2073 -2.138,-2.8278 -6.4141,-2.8278 -7.7936,0 -8.4833,11.4489 h 17.0355 z"
     fill="#000000"
     fill-rule="nonzero"
     fill-opacity="1"
     id="path79"
     transform="translate(-56,-184)" />
  <path
     clip-path="url(#clip640)"
     d="m 91.7159,32.7467 h 19.5181 v 5.3797 H 91.7159 Z"
     fill="#000000"
     fill-rule="nonzero"
     fill-opacity="1"
     id="path80"
     transform="translate(-56,-184)" />
  <path
     clip-path="url(#clip640)"
     d="m 144.34,15.8492 h -18.001 v 13.587 q 3.517,-1.7932 7.379,-1.7932 5.932,0 9.518,3.9312 3.587,3.8623 3.587,10.6903 0,4.552 -2.001,8.1384 -2,3.5175 -5.655,5.5176 -3.586,1.9311 -8.345,1.9311 -4.207,0 -7.518,-1.4483 -3.311,-1.5174 -6.138,-4.4141 l 3.862,-3.7243 q 2.069,2.276 4.414,3.3795 2.345,1.0345 5.311,1.0345 4.414,0 6.897,-2.7588 2.552,-2.7587 2.552,-7.7935 0,-5.0348 -2.276,-7.3108 -2.276,-2.276 -6.139,-2.276 -1.793,0 -3.31,0.4138 -1.518,0.3449 -3.242,1.1725 h -4.966 V 10.8834 h 24.967 z"
     fill="#000000"
     fill-rule="nonzero"
     fill-opacity="1"
     id="path81"
     transform="translate(-56,-184)" />
  <path
     clip-path="url(#clip640)"
     d="m 158.134,48.2649 q 2.069,0 3.448,1.3794 1.379,1.3794 1.379,3.3795 0,2.138 -1.241,4.8968 l -4.621,10.5523 h -4.552 l 2.759,-11.4489 q -0.897,-0.6897 -1.449,-1.7242 -0.482,-1.0346 -0.482,-2.276 0,-2.0001 1.379,-3.3795 1.379,-1.3794 3.38,-1.3794 m 0,-25.3808 q 2.069,0 3.448,1.3794 1.379,1.3794 1.379,3.3795 0,2.0001 -1.379,3.4485 -1.379,1.3794 -3.448,1.3794 -2.001,0 -3.38,-1.3794 -1.379,-1.4484 -1.379,-3.4485 0,-2.0001 1.379,-3.3795 1.379,-1.3794 3.38,-1.3794 z"
     fill="#000000"
     fill-rule="nonzero"
     fill-opacity="1"
     id="path82"
     transform="translate(-56,-184)" />
  <path
     clip-path="url(#clip640)"
     d="m 197.653,57.024 h -6.345 V 20.6771 h 6.345 V 57.024 M 194.412,3.22777 q 2,0 3.241,1.24145 1.242,1.24146 1.242,3.10363 0,1.86218 -1.242,3.10365 -1.241,1.1725 -3.241,1.1725 -1.932,0 -3.173,-1.1725 -1.241,-1.24147 -1.241,-3.10365 0,-1.86217 1.241,-3.10363 1.241,-1.24145 3.173,-1.24145 z"
     fill="#000000"
     fill-rule="nonzero"
     fill-opacity="1"
     id="path83"
     transform="translate(-56,-184)" />
  <path
     clip-path="url(#clip640)"
     d="m 227.862,19.8494 q 4.966,0 7.724,2.9657 2.828,2.9657 2.828,8.1384 V 57.024 h -6.345 V 31.8501 q 0,-3.8623 -1.448,-5.4486 -1.449,-1.5863 -4.277,-1.5863 -2.896,0 -5.103,1.6553 -2.207,1.6553 -4.138,4.7589 V 57.024 h -6.346 V 20.6771 h 5.449 l 0.552,5.3796 q 1.931,-2.8967 4.759,-4.552 2.896,-1.6553 6.345,-1.6553 z"
     fill="#000000"
     fill-rule="nonzero"
     fill-opacity="1"
     id="path84"
     transform="translate(-56,-184)" />
  <path
     clip-path="url(#clip640)"
     d="m 257.519,57.024 h -6.346 V 20.6771 h 6.346 V 57.024 M 254.277,3.22777 q 2,0 3.242,1.24145 1.241,1.24146 1.241,3.10363 0,1.86218 -1.241,3.10365 -1.242,1.1725 -3.242,1.1725 -1.931,0 -3.172,-1.1725 -1.242,-1.24147 -1.242,-3.10365 0,-1.86217 1.242,-3.10363 1.241,-1.24145 3.172,-1.24145 z"
     fill="#000000"
     fill-rule="nonzero"
     fill-opacity="1"
     id="path85"
     transform="translate(-56,-184)" />
  <path
     clip-path="url(#clip640)"
     d="m 288.969,55.3687 q -3.587,2.4829 -8.139,2.4829 -4.621,0 -7.241,-2.6208 -2.552,-2.6898 -2.552,-7.7246 V 25.5739 h -6.346 v -4.8968 h 6.346 v -8.2074 l 6.345,-0.7587 v 8.9661 h 8.621 l -0.69,4.8968 h -7.931 v 21.6564 q 0,2.8278 0.965,4.1382 1.035,1.2415 3.38,1.2415 2.276,0 4.828,-1.5863 z"
     fill="#000000"
     fill-rule="nonzero"
     fill-opacity="1"
     id="path86"
     transform="translate(-56,-184)" />
  <path
     clip-path="url(#clip640)"
     d="m 301.866,57.024 h -6.345 V 20.6771 h 6.345 V 57.024 M 298.625,3.22777 q 2,0 3.241,1.24145 1.242,1.24146 1.242,3.10363 0,1.86218 -1.242,3.10365 -1.241,1.1725 -3.241,1.1725 -1.932,0 -3.173,-1.1725 -1.242,-1.24147 -1.242,-3.10365 0,-1.86217 1.242,-3.10363 1.241,-1.24145 3.173,-1.24145 z"
     fill="#000000"
     fill-rule="nonzero"
     fill-opacity="1"
     id="path87"
     transform="translate(-56,-184)" />
  <path
     clip-path="url(#clip640)"
     d="m 339.454,48.5407 q 0,2.2071 0.759,3.3106 0.759,1.0345 2.276,1.5863 l -1.448,4.414 q -2.828,-0.3448 -4.552,-1.5863 -1.724,-1.2414 -2.552,-3.8623 -3.655,5.4486 -10.828,5.4486 -5.38,0 -8.484,-3.0346 -3.103,-3.0347 -3.103,-7.9315 0,-5.7935 4.138,-8.8971 4.207,-3.1036 11.863,-3.1036 h 5.586 V 32.195 q 0,-3.8623 -1.862,-5.5176 -1.862,-1.6553 -5.724,-1.6553 -4.001,0 -9.794,1.9312 l -1.586,-4.621 q 6.759,-2.4829 12.552,-2.4829 6.414,0 9.587,3.1726 3.172,3.1037 3.172,8.8971 v 16.6216 m -14.897,4.552 q 5.449,0 8.552,-5.6555 v -8.3453 h -4.759 q -10.069,0 -10.069,7.4487 0,3.2416 1.586,4.8969 1.586,1.6552 4.69,1.6552 z"
     fill="#000000"
     fill-rule="nonzero"
     fill-opacity="1"
     id="path88"
     transform="translate(-56,-184)" />
  <path
     clip-path="url(#clip640)"
     d="m 359.731,57.8516 q -3.517,0 -5.586,-2.0691 -2,-2.138 -2,-5.9313 V 6.05552 L 358.49,5.29686 V 49.7132 q 0,1.5174 0.483,2.2071 0.552,0.6897 1.793,0.6897 1.31,0 2.345,-0.4139 l 1.655,4.4141 q -2.276,1.2414 -5.035,1.2414 z"
     fill="#000000"
     fill-rule="nonzero"
     fill-opacity="1"
     id="path89"
     transform="translate(-56,-184)" />
  <path
     clip-path="url(#clip640)"
     d="m 367.318,61.3691 h 33.519 v 5.4486 h -33.519 z"
     fill="#000000"
     fill-rule="nonzero"
     fill-opacity="1"
     id="path90"
     transform="translate(-56,-184)" />
  <path
     clip-path="url(#clip640)"
     d="m 425.253,19.8494 q 6.965,0 10.207,4.9658 3.242,4.9658 3.242,14.0008 0,8.5523 -3.725,13.794 -3.724,5.2416 -10.552,5.2416 -6.069,0 -9.518,-4.1381 v 17.2423 l -6.345,0.7587 V 20.6771 h 5.449 l 0.482,4.8968 q 2,-2.7588 4.828,-4.2071 2.828,-1.5174 5.932,-1.5174 m -2.345,32.8295 q 8.966,0 8.966,-13.8629 0,-13.9318 -8.208,-13.9318 -2.69,0 -4.897,1.5863 -2.207,1.5863 -3.862,4.0692 v 17.7252 q 1.38,2.138 3.449,3.3105 2.069,1.1035 4.552,1.1035 z"
     fill="#000000"
     fill-rule="nonzero"
     fill-opacity="1"
     id="path91"
     transform="translate(-56,-184)" />
  <path
     clip-path="url(#clip640)"
     d="m 476.98,37.7815 q 0,1.5863 -0.138,3.2416 h -23.174 q 0.414,6.0003 3.035,8.8281 2.62,2.8277 6.759,2.8277 2.62,0 4.828,-0.7586 2.207,-0.7587 4.62,-2.414 l 2.759,3.7933 q -5.793,4.552 -12.69,4.552 -7.587,0 -11.863,-4.9658 -4.207,-4.9658 -4.207,-13.6559 0,-5.6555 1.793,-10.0006 1.862,-4.4141 5.242,-6.897 3.448,-2.4829 8.069,-2.4829 7.242,0 11.104,4.7589 3.863,4.7589 3.863,13.1732 m -6.277,-1.8622 q 0,-5.3796 -2.138,-8.2073 -2.138,-2.8278 -6.414,-2.8278 -7.793,0 -8.483,11.4489 h 17.035 z"
     fill="#000000"
     fill-rule="nonzero"
     fill-opacity="1"
     id="path92"
     transform="translate(-56,-184)" />
  <path
     clip-path="url(#clip640)"
     d="m 503.257,19.8494 q 1.931,0 3.586,0.4138 l -1.172,6.2073 q -1.655,-0.4138 -3.173,-0.4138 -3.379,0 -5.448,2.4829 -2.069,2.4829 -3.242,7.7246 V 57.024 h -6.345 V 20.6771 h 5.449 l 0.62,7.3797 q 1.449,-4.0692 3.932,-6.1383 2.483,-2.0691 5.793,-2.0691 z"
     fill="#000000"
     fill-rule="nonzero"
     fill-opacity="1"
     id="path93"
     transform="translate(-56,-184)" />
  <path
     clip-path="url(#clip640)"
     d="m 550.57,19.8494 q 4.483,0 7.173,3.0347 2.69,2.9657 2.69,8.0694 V 57.024 h -6.345 V 31.8501 q 0,-7.0349 -5.104,-7.0349 -2.69,0 -4.552,1.5863 -1.862,1.5174 -4,4.8279 V 57.024 h -6.346 V 31.8501 q 0,-7.0349 -5.103,-7.0349 -2.759,0 -4.621,1.5863 -1.862,1.5863 -3.932,4.8279 V 57.024 h -6.345 V 20.6771 h 5.449 l 0.552,5.3106 q 4.069,-6.1383 10.483,-6.1383 3.38,0 5.724,1.7243 2.414,1.7242 3.449,4.8278 2.138,-3.1726 4.69,-4.8278 2.621,-1.7243 6.138,-1.7243 z"
     fill="#000000"
     fill-rule="nonzero"
     fill-opacity="1"
     id="path94"
     transform="translate(-56,-184)" />
  <path
     clip-path="url(#clip640)"
     d="m 600.228,57.024 h -5.448 l -0.483,-5.6555 q -2.069,3.3795 -4.759,4.9658 -2.69,1.5173 -6.552,1.5173 -4.759,0 -7.449,-2.8967 -2.69,-2.8967 -2.69,-8.2074 V 20.6771 h 6.346 v 25.3807 q 0,3.7244 1.31,5.3107 1.31,1.5173 4.276,1.5173 5.311,0 9.104,-6.2762 V 20.6771 h 6.345 z"
     fill="#000000"
     fill-rule="nonzero"
     fill-opacity="1"
     id="path95"
     transform="translate(-56,-184)" />
  <path
     clip-path="url(#clip640)"
     d="m 631.678,55.3687 q -3.586,2.4829 -8.138,2.4829 -4.621,0 -7.242,-2.6208 -2.552,-2.6898 -2.552,-7.7246 V 25.5739 h -6.345 v -4.8968 h 6.345 v -8.2074 l 6.345,-0.7587 v 8.9661 h 8.622 l -0.69,4.8968 h -7.932 v 21.6564 q 0,2.8278 0.966,4.1382 1.035,1.2415 3.38,1.2415 2.276,0 4.827,-1.5863 z"
     fill="#000000"
     fill-rule="nonzero"
     fill-opacity="1"
     id="path96"
     transform="translate(-56,-184)" />
  <path
     clip-path="url(#clip640)"
     d="m 635.954,24.8842 h 25.933 v 5.3107 h -25.933 v -5.3107 m 0,13.3111 h 25.933 v 5.3107 h -25.933 z"
     fill="#000000"
     fill-rule="nonzero"
     fill-opacity="1"
     id="path97"
     transform="translate(-56,-184)" />
  <path
     clip-path="url(#clip640)"
     d="m 685.406,10.1937 q 7.655,0 11.517,6.1383 3.932,6.0693 3.932,17.6562 0,11.5869 -3.932,17.7251 -3.862,6.1383 -11.517,6.1383 -7.656,0 -11.587,-6.1383 -3.863,-6.1382 -3.863,-17.7251 0,-11.5869 3.863,-17.6562 3.931,-6.1383 11.587,-6.1383 m 0,5.0348 q -4.483,0 -6.69,4.414 -2.139,4.4141 -2.139,14.3457 0,9.9316 2.139,14.4146 2.207,4.4141 6.69,4.4141 4.414,0 6.621,-4.4141 2.207,-4.483 2.207,-14.4146 0,-9.8627 -2.207,-14.2767 -2.207,-4.483 -6.621,-4.483 z"
     fill="#000000"
     fill-rule="nonzero"
     fill-opacity="1"
     id="path98"
     transform="translate(-56,-184)" />
  <path
     clip-path="url(#clip640)"
     d="m 712.855,48.2649 q 2.07,0 3.449,1.3794 1.379,1.3794 1.379,3.3795 0,2.0001 -1.379,3.4484 -1.379,1.3794 -3.449,1.3794 -2,0 -3.379,-1.3794 -1.379,-1.4483 -1.379,-3.4484 0,-2.0001 1.379,-3.3795 1.379,-1.3794 3.379,-1.3794 z"
     fill="#000000"
     fill-rule="nonzero"
     fill-opacity="1"
     id="path99"
     transform="translate(-56,-184)" />
  <path
     clip-path="url(#clip640)"
     d="m 740.443,10.1937 q 7.656,0 11.518,6.1383 3.931,6.0693 3.931,17.6562 0,11.5869 -3.931,17.7251 -3.862,6.1383 -11.518,6.1383 -7.655,0 -11.587,-6.1383 -3.862,-6.1382 -3.862,-17.7251 0,-11.5869 3.862,-17.6562 3.932,-6.1383 11.587,-6.1383 m 0,5.0348 q -4.483,0 -6.69,4.414 -2.138,4.4141 -2.138,14.3457 0,9.9316 2.138,14.4146 2.207,4.4141 6.69,4.4141 4.414,0 6.621,-4.4141 2.207,-4.483 2.207,-14.4146 0,-9.8627 -2.207,-14.2767 -2.207,-4.483 -6.621,-4.483 z"
     fill="#000000"
     fill-rule="nonzero"
     fill-opacity="1"
     id="path100"
     transform="translate(-56,-184)" />
  <path
     clip-path="url(#clip640)"
     d="m 767.893,48.2649 q 2.069,0 3.449,1.3794 1.379,1.3794 1.379,3.3795 0,2.138 -1.241,4.8968 l -4.621,10.5523 h -4.552 l 2.758,-11.4489 q -0.896,-0.6897 -1.448,-1.7242 -0.483,-1.0346 -0.483,-2.276 0,-2.0001 1.38,-3.3795 1.379,-1.3794 3.379,-1.3794 m 0,-25.3808 q 2.069,0 3.449,1.3794 1.379,1.3794 1.379,3.3795 0,2.0001 -1.379,3.4485 -1.38,1.3794 -3.449,1.3794 -2,0 -3.379,-1.3794 -1.38,-1.4484 -1.38,-3.4485 0,-2.0001 1.38,-3.3795 1.379,-1.3794 3.379,-1.3794 z"
     fill="#000000"
     fill-rule="nonzero"
     fill-opacity="1"
     id="path101"
     transform="translate(-56,-184)" />
  <path
     clip-path="url(#clip640)"
     d="m 828.517,37.7815 q 0,1.5863 -0.138,3.2416 h -23.173 q 0.413,6.0003 3.034,8.8281 2.621,2.8277 6.759,2.8277 2.621,0 4.828,-0.7586 2.207,-0.7587 4.621,-2.414 l 2.759,3.7933 q -5.794,4.552 -12.69,4.552 -7.587,0 -11.863,-4.9658 -4.207,-4.9658 -4.207,-13.6559 0,-5.6555 1.793,-10.0006 1.862,-4.4141 5.242,-6.897 3.448,-2.4829 8.069,-2.4829 7.242,0 11.104,4.7589 3.862,4.7589 3.862,13.1732 m -6.276,-1.8622 q 0,-5.3796 -2.138,-8.2073 -2.138,-2.8278 -6.414,-2.8278 -7.794,0 -8.483,11.4489 h 17.035 z"
     fill="#000000"
     fill-rule="nonzero"
     fill-opacity="1"
     id="path102"
     transform="translate(-56,-184)" />
  <path
     clip-path="url(#clip640)"
     d="m 855.691,19.8494 q 6.966,0 10.208,4.9658 3.241,4.9658 3.241,14.0008 0,8.5523 -3.724,13.794 -3.724,5.2416 -10.552,5.2416 -6.07,0 -9.518,-4.1381 v 17.2423 l -6.345,0.7587 V 20.6771 h 5.448 l 0.483,4.8968 q 2,-2.7588 4.828,-4.2071 2.828,-1.5174 5.931,-1.5174 m -2.345,32.8295 q 8.966,0 8.966,-13.8629 0,-13.9318 -8.207,-13.9318 -2.69,0 -4.897,1.5863 -2.207,1.5863 -3.862,4.0692 v 17.7252 q 1.379,2.138 3.448,3.3105 2.069,1.1035 4.552,1.1035 z"
     fill="#000000"
     fill-rule="nonzero"
     fill-opacity="1"
     id="path103"
     transform="translate(-56,-184)" />
  <path
     clip-path="url(#clip640)"
     d="m 893.625,19.8494 q 7.655,0 11.862,5.1038 4.276,5.1037 4.276,13.8628 0,5.6555 -1.931,10.0006 -1.931,4.2761 -5.586,6.6901 -3.656,2.3449 -8.69,2.3449 -7.656,0 -11.932,-5.1037 -4.276,-5.1038 -4.276,-13.8629 0,-5.6555 1.931,-9.9316 1.931,-4.3451 5.586,-6.69 3.656,-2.414 8.76,-2.414 m 0,5.1038 q -9.449,0 -9.449,13.9318 0,13.8629 9.38,13.8629 9.379,0 9.379,-13.9319 0,-13.8628 -9.31,-13.8628 z"
     fill="#000000"
     fill-rule="nonzero"
     fill-opacity="1"
     id="path104"
     transform="translate(-56,-184)" />
  <path
     clip-path="url(#clip640)"
     d="m 933.489,19.8494 q 3.242,0 5.931,0.9656 2.69,0.8966 5.173,2.9657 l -3.035,4.0002 q -1.931,-1.3794 -3.793,-2.0001 -1.793,-0.6897 -4,-0.6897 -4.414,0 -6.897,3.5175 -2.414,3.5174 -2.414,10.4144 0,6.8969 2.414,10.2074 2.414,3.2416 6.897,3.2416 2.138,0 3.931,-0.6207 1.793,-0.6897 4,-2.1381 l 2.897,4.1382 q -4.966,4.0002 -11.104,4.0002 -7.38,0 -11.656,-4.9658 -4.207,-4.9658 -4.207,-13.7249 0,-5.7934 1.931,-10.1385 1.931,-4.3451 5.449,-6.759 3.586,-2.414 8.483,-2.414 z"
     fill="#000000"
     fill-rule="nonzero"
     fill-opacity="1"
     id="path105"
     transform="translate(-56,-184)" />
  <path
     clip-path="url(#clip640)"
     d="m 970.319,19.8494 q 4.965,0 7.724,2.9657 2.828,2.9657 2.828,8.1384 V 57.024 h -6.345 V 31.8501 q 0,-3.8623 -1.518,-5.4486 -1.448,-1.5863 -4.276,-1.5863 -2.827,0 -5.034,1.6553 -2.207,1.6553 -4.139,4.6899 V 57.024 h -6.345 V 6.12449 l 6.345,-0.68969 v 20.277 q 4.277,-5.8624 10.76,-5.8624 z"
     fill="#000000"
     fill-rule="nonzero"
     fill-opacity="1"
     id="path106"
     transform="translate(-56,-184)" />
  <path
     clip-path="url(#clip640)"
     d="m 1003.49,19.8494 q 3.73,0 6.69,1.0346 2.97,1.0345 5.66,3.1036 l -2.69,4.0002 q -2.48,-1.5863 -4.76,-2.3449 -2.21,-0.7587 -4.69,-0.7587 -3.1,0 -4.897,1.3104 -1.793,1.2415 -1.793,3.4485 0,2.207 1.655,3.4485 1.725,1.2414 6.135,2.4139 6.07,1.5173 9.04,4.1382 3.03,2.6208 3.03,7.1728 0,5.3796 -4.2,8.2074 -4.14,2.8277 -10.14,2.8277 -8.279,0 -13.728,-4.7589 l 3.38,-3.8623 q 4.621,3.5175 10.208,3.5175 3.59,0 5.65,-1.4484 2.14,-1.5173 2.14,-4.0692 0,-1.8621 -0.76,-2.9657 -0.75,-1.1724 -2.62,-2.0001 -1.86,-0.8966 -5.45,-1.8622 -5.788,-1.5173 -8.409,-4.0692 -2.552,-2.5518 -2.552,-6.4831 0,-2.8277 1.655,-5.1037 1.724,-2.345 4.69,-3.5865 3.035,-1.3104 6.756,-1.3104 z"
     fill="#000000"
     fill-rule="nonzero"
     fill-opacity="1"
     id="path107"
     transform="translate(-56,-184)" />
  <path
     clip-path="url(#clip640)"
     d="m 1023.56,24.8842 h 25.94 v 5.3107 h -25.94 v -5.3107 m 0,13.3111 h 25.94 v 5.3107 h -25.94 z"
     fill="#000000"
     fill-rule="nonzero"
     fill-opacity="1"
     id="path108"
     transform="translate(-56,-184)" />
  <path
     clip-path="url(#clip640)"
     d="m 1076.05,57.024 h -6.35 V 17.6424 l -10.76,6.5521 -2.75,-4.483 14.27,-8.8281 h 5.59 z"
     fill="#000000"
     fill-rule="nonzero"
     fill-opacity="1"
     id="path109"
     transform="translate(-56,-184)" />
  <path
     clip-path="url(#clip640)"
     d="m 1102.88,10.1937 q 7.65,0 11.52,6.1383 3.93,6.0693 3.93,17.6562 0,11.5869 -3.93,17.7251 -3.87,6.1383 -11.52,6.1383 -7.66,0 -11.59,-6.1383 -3.86,-6.1382 -3.86,-17.7251 0,-11.5869 3.86,-17.6562 3.93,-6.1383 11.59,-6.1383 m 0,5.0348 q -4.48,0 -6.69,4.414 -2.14,4.4141 -2.14,14.3457 0,9.9316 2.14,14.4146 2.21,4.4141 6.69,4.4141 4.41,0 6.62,-4.4141 2.21,-4.483 2.21,-14.4146 0,-9.8627 -2.21,-14.2767 -2.21,-4.483 -6.62,-4.483 z"
     fill="#000000"
     fill-rule="nonzero"
     fill-opacity="1"
     id="path110"
     transform="translate(-56,-184)" />
  <path
     clip-path="url(#clip640)"
     d="m 1141.36,10.1937 q 7.66,0 11.52,6.1383 3.93,6.0693 3.93,17.6562 0,11.5869 -3.93,17.7251 -3.86,6.1383 -11.52,6.1383 -7.65,0 -11.58,-6.1383 -3.87,-6.1382 -3.87,-17.7251 0,-11.5869 3.87,-17.6562 3.93,-6.1383 11.58,-6.1383 m 0,5.0348 q -4.48,0 -6.69,4.414 -2.14,4.4141 -2.14,14.3457 0,9.9316 2.14,14.4146 2.21,4.4141 6.69,4.4141 4.42,0 6.62,-4.4141 2.21,-4.483 2.21,-14.4146 0,-9.8627 -2.21,-14.2767 -2.2,-4.483 -6.62,-4.483 z"
     fill="#000000"
     fill-rule="nonzero"
     fill-opacity="1"
     id="path111"
     transform="translate(-56,-184)" />
  <path
     clip-path="url(#clip640)"
     d="m 1168.81,48.2649 q 2.07,0 3.45,1.3794 1.38,1.3794 1.38,3.3795 0,2.138 -1.24,4.8968 l -4.62,10.5523 h -4.55 l 2.76,-11.4489 q -0.9,-0.6897 -1.45,-1.7242 -0.49,-1.0346 -0.49,-2.276 0,-2.0001 1.38,-3.3795 1.38,-1.3794 3.38,-1.3794 m 0,-25.3808 q 2.07,0 3.45,1.3794 1.38,1.3794 1.38,3.3795 0,2.0001 -1.38,3.4485 -1.38,1.3794 -3.45,1.3794 -2,0 -3.38,-1.3794 -1.38,-1.4484 -1.38,-3.4485 0,-2.0001 1.38,-3.3795 1.38,-1.3794 3.38,-1.3794 z"
     fill="#000000"
     fill-rule="nonzero"
     fill-opacity="1"
     id="path112"
     transform="translate(-56,-184)" />
  <path
     clip-path="url(#clip640)"
     d="m 1235.64,57.024 h -8.75 l -19.32,-40.3472 q 0.42,4.7589 0.62,8.8281 0.28,4.0003 0.28,9.7247 V 57.024 h -6.14 V 9.504 h 8.55 l 19.52,40.4161 q -0.2,-1.7932 -0.55,-6.2762 -0.34,-4.483 -0.34,-8.2074 V 9.504 h 6.13 z"
     fill="#000000"
     fill-rule="nonzero"
     fill-opacity="1"
     id="path113"
     transform="translate(-56,-184)" />
  <path
     clip-path="url(#clip640)"
     d="m 1246.82,24.8842 h 25.93 v 5.3107 h -25.93 v -5.3107 m 0,13.3111 h 25.93 v 5.3107 h -25.93 z"
     fill="#000000"
     fill-rule="nonzero"
     fill-opacity="1"
     id="path114"
     transform="translate(-56,-184)" />
  <path
     clip-path="url(#clip640)"
     d="m 1292.75,10.1937 q 4.14,0 7.24,1.6553 3.18,1.6552 4.9,4.552 1.72,2.8277 1.72,6.4141 0,4.2072 -1.93,8.0695 -1.86,3.8622 -5.79,8.3453 -3.93,4.483 -11.93,12.4834 h 20.76 l -0.76,5.3107 h -27.24 v -5.0348 q 9.24,-9.5867 13.1,-14.0008 3.86,-4.483 5.52,-7.7935 1.65,-3.3106 1.65,-7.1039 0,-3.5864 -2.07,-5.5865 -2.07,-2.0691 -5.51,-2.0691 -2.83,0 -4.97,1.1725 -2.14,1.1724 -4.41,3.8623 l -4.28,-3.3106 q 2.83,-3.5174 6.28,-5.2417 3.45,-1.7242 7.72,-1.7242 z"
     fill="#000000"
     fill-rule="nonzero"
     fill-opacity="1"
     id="path115"
     transform="translate(-56,-184)" />
  <path
     clip-path="url(#clip640)"
     d="m 1330.41,10.1937 q 7.65,0 11.52,6.1383 3.93,6.0693 3.93,17.6562 0,11.5869 -3.93,17.7251 -3.87,6.1383 -11.52,6.1383 -7.66,0 -11.59,-6.1383 -3.86,-6.1382 -3.86,-17.7251 0,-11.5869 3.86,-17.6562 3.93,-6.1383 11.59,-6.1383 m 0,5.0348 q -4.48,0 -6.69,4.414 -2.14,4.4141 -2.14,14.3457 0,9.9316 2.14,14.4146 2.21,4.4141 6.69,4.4141 4.41,0 6.62,-4.4141 2.21,-4.483 2.21,-14.4146 0,-9.8627 -2.21,-14.2767 -2.21,-4.483 -6.62,-4.483 z"
     fill="#000000"
     fill-rule="nonzero"
     fill-opacity="1"
     id="path116"
     transform="translate(-56,-184)" />
  <polyline
     clip-path="url(#clip642)"
     style="fill:none;stroke:#ffbe6f;stroke-width:8;stroke-linecap:round;stroke-linejoin:round;stroke-opacity:1"
     points="323.391,1252.42 347.92,1226.02 372.45,1183.48 396.98,1152.73 421.509,1090.34 446.039,1055.18 470.569,1023.86 495.098,978.435 519.628,953.313 544.157,874.871 568.687,813.1 593.217,779.941 617.746,752.907 642.276,717.934 666.806,687.935 691.335,614.951 715.865,561.384 740.395,525.4 764.924,483.043 789.454,454.355 813.984,397.147 838.513,342.458 863.043,292.873 887.573,251.165 912.102,227.997 "
     id="polyline116"
     transform="translate(-56,-184)" />
</svg>
